<?xml version="1.0" encoding="UTF-8"?>
<!DOCTYPE svg PUBLIC "-//W3C//DTD SVG 1.1//EN" "http://www.w3.org/Graphics/SVG/1.1/DTD/svg11.dtd">
<!-- Creator: CorelDRAW 2020 (64-Bit) -->
<svg xmlns="http://www.w3.org/2000/svg" xml:space="preserve" width="650px" height="1654px" version="1.1" style="shape-rendering:geometricPrecision; text-rendering:geometricPrecision; image-rendering:optimizeQuality; fill-rule:evenodd; clip-rule:evenodd"
viewBox="0 0 650 1654.55"
 xmlns:xlink="http://www.w3.org/1999/xlink"
 xmlns:xodm="http://www.corel.com/coreldraw/odm/2003">
 <defs>
  <style type="text/css">
   <![CDATA[
    .fil2 {fill:#0171BC}
    .fil1 {fill:#1A1A1A}
    .fil3 {fill:#A4A3A4}
    .fil0 {fill:white}
   ]]>
  </style>
 </defs>
 <g id="Katman_x0020_1">
  <metadata id="CorelCorpID_0Corel-Layer"/>
  <g id="_2249840973680">
   <path class="fil0" d="M253.54 1117.19c12.2,-146.03 -37.25,-310.26 68.34,-313.54 79.43,-2.46 73.63,78.24 73.61,117.11 -0.12,247.21 -17.64,176.62 57.26,234.06 104.61,80.23 116.64,236.25 12.74,332.78 -16.76,15.57 -34.1,27.64 -58.35,37.93 -40.18,17.04 -84.49,21.01 -128.41,11.38 -17.67,-3.88 -23.8,-5.83 -37.53,-11.91 -157.39,-69.66 -167.73,-278.34 -45.7,-369.88 15.8,-11.85 46.42,-27.92 58.04,-37.93zm-55.13 -36.33c-7.67,13.19 -19.77,17.92 -30.49,25.35 -199.8,138.5 -116.15,490.54 153.87,491.89 239.03,1.2 361.15,-286.8 195.21,-461.96 -19.83,-20.94 -39.84,-31.58 -65.81,-50.17l0 -864.59c0.05,-46.61 -2.05,-85.58 -27.44,-115.91 -65.8,-78.58 -225.89,-72.59 -225.37,107.47l0.03 867.92z"/>
   <path class="fil1" d="M198.38 212.94c-0.52,-180.06 159.57,-186.05 225.37,-107.47 25.39,30.33 27.49,69.3 27.44,115.91l0 864.59c25.97,18.59 45.98,29.23 65.81,50.17 165.94,175.16 43.82,463.16 -195.21,461.96 -270.02,-1.35 -353.67,-353.39 -153.87,-491.89 10.72,-7.43 22.82,-12.16 30.49,-25.35l-0.03 -867.92zm311.99 842.19c-8.79,-10.26 -4.9,-75.76 -3.68,-89.48 24.51,-9.77 91.48,-3.03 122.4,-4.46 16.92,-4.37 23.5,-15.52 18.07,-35.48 -4.83,-17.75 -17.33,-18.23 -37.9,-18.48 -27.87,-0.33 -76.56,3.34 -102.04,-1.49l0.5 -100.73c22.61,-5.21 58.33,4.28 76.63,-6.08 19.75,-11.16 17.78,-42.45 -9.22,-50.48l-68.08 -2.58c-2.19,-17.28 -1.16,-35.12 -1.17,-52.62 -0.03,-36.05 -5.57,-43.94 6.94,-50.1 33.11,-1.38 67.63,1.1 100.61,-0.13 43.44,-1.61 46.79,-42.13 16.34,-55.24l-122.3 -2.47c-3.04,-16.79 -1.62,-34.89 -1.62,-52.16 -0.02,-26.84 -4.76,-43.72 5.47,-50.29 32.37,-1.15 52.13,2.74 79.17,-6.35 26.12,-71.54 -38.33,-40.16 -83.35,-53.84l0.2 -98.64c37.58,-10.6 141.28,20.1 141.01,-31.02 -0.27,-50.07 -102.64,-23.21 -141.15,-30.69 0,-75.64 5.82,-124.37 -30.69,-180.54 -23.32,-35.87 -69.58,-72.46 -129.53,-80.12 -32.82,-4.19 -65.23,1.02 -91.98,12.65 -85.53,37.19 -112.47,103.55 -112.37,202.85 0.29,279.22 1.67,559.1 -0.06,838.26 -92.08,57.95 -181.65,212.65 -125.16,375.83 105.9,305.87 519.2,289.6 614.7,1.48 24.69,-74.48 22.2,-158.43 -6.51,-229.41 -12.38,-30.61 -31.78,-64.04 -49.61,-84.93 -36.29,-42.51 -53.79,-49.37 -65.62,-63.26z"/>
   <path class="fil2" d="M253.54 1117.19c-11.62,10.01 -42.24,26.08 -58.04,37.93 -122.03,91.54 -111.69,300.22 45.7,369.88 13.73,6.08 19.86,8.03 37.53,11.91 43.92,9.63 88.23,5.66 128.41,-11.38 24.25,-10.29 41.59,-22.36 58.35,-37.93 103.9,-96.53 91.87,-252.55 -12.74,-332.78 -74.9,-57.44 -57.38,13.15 -57.26,-234.06 0.02,-38.87 5.82,-119.57 -73.61,-117.11 -105.59,3.28 -56.14,167.51 -68.34,313.54z"/>
   <path class="fil3" d="M510.37 1055.13l-0.21 -88.96 107.14 0c20.42,-1.12 6.41,0.1 11.79,-4.98 -30.92,1.43 -97.89,-5.31 -122.4,4.46 -1.22,13.72 -5.11,79.22 3.68,89.48z"/>
   <path class="fil3" d="M629.77 587.78c-20.62,-10.7 -90.86,-3.51 -120.37,-3.51l1.92 -101.41c-10.23,6.57 -5.49,23.45 -5.47,50.29 0,17.27 -1.42,35.37 1.62,52.16l122.3 2.47z"/>
   <path class="fil3" d="M575.13 748.45c-14.12,-7.92 -46.05,-3.57 -65.58,-3.57 0,-29.95 -4.66,-74.23 3.27,-101.73 -12.51,6.16 -6.97,14.05 -6.94,50.1 0.01,17.5 -1.02,35.34 1.17,52.62l68.08 2.58z"/>
  </g>
 </g>
</svg>
