<svg width="185" height="250" xmlns="http://www.w3.org/2000/svg">
 <g id="Layer_1">
  <title>Layer 1</title>
  <g>

   <g fill-rule=" nonzero" fill=" none" stroke-miterlimit="10" stroke-linejoin=" miter" stroke-linecap=" butt" stroke-dasharray=" none" stroke-width="0" stroke=" none" transform="translate(1.40659 1.40659) scale(2.81 2.81)">
    <path fill-rule=" nonzero" fill=" rgb(184,53,53)" stroke-miterlimit="10" stroke-linejoin=" miter" stroke-dasharray=" none" stroke=" none" stroke-linecap=" butt" d="m-0.46861,53.50955l0,31.965c0,1.741 1.412,3.153 3.153,3.153l60.534,0c1.741,0 3.153,-1.412 3.153,-3.153l0,-31.965c-22.347,-7.001 -44.628,-7.044 -66.84,0z"/>
    <path fill-rule=" nonzero" fill=" rgb(233,233,224)" stroke-miterlimit="10" stroke-linejoin=" miter" stroke-dasharray=" none" stroke=" none" stroke-linecap=" butt" d="m66.37139,53.50955l0,-36.537c-9.034,-4.687 -15.287,-10.735 -18.345,-18.345l-45.342,0c-1.741,0 -3.153,1.412 -3.153,3.153l0,51.729l66.84,0z"/>
    <path fill-rule=" nonzero" fill=" rgb(217,215,202)" stroke-miterlimit="10" stroke-linejoin=" miter" stroke-dasharray=" none" stroke=" none" stroke-linecap=" butt" d="m66.37139,16.97255l-15.472,0c-1.587,0 -2.873,-1.286 -2.873,-2.873l0,-15.472l18.345,18.345z"/>
    <path fill-rule=" nonzero" fill=" rgb(249,249,249)" stroke-miterlimit="10" stroke-linejoin=" miter" stroke-dasharray=" none" stroke=" none" stroke-linecap=" butt" d="m20.06739,61.30655l-5.944,0c-0.829,0 -1.5,0.672 -1.5,1.5l0,9.854l0,6.748c0,0.828 0.671,1.5 1.5,1.5s1.5,-0.672 1.5,-1.5l0,-5.248l4.444,0c2.392,0 4.338,-1.946 4.338,-4.338l0,-4.177c0,-2.393 -1.946,-4.339 -4.338,-4.339zm1.338,8.515c0,0.737 -0.6,1.338 -1.338,1.338l-4.444,0l0,-6.854l4.444,0c0.738,0 1.338,0.601 1.338,1.339l0,4.177z"/>
    <path fill-rule=" nonzero" fill=" rgb(249,249,249)" stroke-miterlimit="10" stroke-linejoin=" miter" stroke-dasharray=" none" stroke=" none" stroke-linecap=" butt" d="m34.06039,80.90755l-5.652,0c-0.829,0 -1.5,-0.672 -1.5,-1.5l0,-16.601c0,-0.828 0.671,-1.5 1.5,-1.5l5.652,0c2.553,0 4.63,2.077 4.63,4.63l0,10.341c0,2.553 -2.077,4.63 -4.63,4.63zm-4.152,-3l4.152,0c0.898,0 1.63,-0.731 1.63,-1.63l0,-10.341c0,-0.898 -0.731,-1.63 -1.63,-1.63l-4.152,0l0,13.601z"/>
    <path fill-rule=" nonzero" fill=" rgb(249,249,249)" stroke-miterlimit="10" stroke-linejoin=" miter" stroke-dasharray=" none" stroke=" none" stroke-linecap=" butt" d="m51.77939,61.30655l-8.782,0c-0.828,0 -1.5,0.672 -1.5,1.5l0,16.601c0,0.828 0.672,1.5 1.5,1.5s1.5,-0.672 1.5,-1.5l0,-6.801l4.251,0c0.828,0 1.5,-0.672 1.5,-1.5s-0.672,-1.5 -1.5,-1.5l-4.251,0l0,-5.301l7.282,0c0.828,0 1.5,-0.672 1.5,-1.5s-0.672,-1.499 -1.5,-1.499z"/>
   </g>
  </g>
  <path id="svg_7" d="m94.18018,19.42273c-29.84358,0 -51.29477,24.37029 -51.29477,60.93022c0,32.52662 20.85743,62.06977 51.29876,62.06977c30.73223,0 51.70124,-29.53417 51.70124,-62.06977c0,-36.85154 -22.13263,-60.93022 -51.70523,-60.93022zm-0.00797,109.92653l0,0c-9.12164,0 -13.90761,-7.22764 -16.42214,-17.03049c-1.13174,-4.65243 -1.82512,-9.80285 -2.24355,-14.98917c-0.45429,-6.16436 -0.51406,-12.44087 -0.51406,-18.07134c0,-4.45503 0.07173,-8.87865 0.29489,-13.1273c0.49414,-7.75255 1.53821,-15.39294 3.54664,-21.68292c2.76558,-7.70769 7.45591,-12.66071 15.33822,-12.66071c9.96247,0 14.99551,7.99482 17.47418,19.39035c1.70956,8.4973 2.23159,18.50204 2.23159,28.14787c0,10.3143 -0.41045,23.11858 -3.04055,33.38802c-2.63408,9.59648 -7.5396,16.63569 -16.66522,16.63569z" stroke-width="0" stroke="#000" fill="#000000"/>
  <path stroke-dasharray="2,2" id="svg_11" d="m2.50001,15.06204l11.63755,-14.06204l12.36239,14.93777l12.36239,-14.93777l11.63766,14.06204l-12.36239,14.93789l12.36239,14.93789l-11.63766,14.06218l-12.36239,-14.93789l-12.36239,14.93789l-11.63755,-14.06218l12.36229,-14.93789l-12.36229,-14.93789z" stroke="#000" fill="#000000"/>
 </g>

</svg>