<?xml version="1.0" encoding="UTF-8"?>
<!DOCTYPE svg PUBLIC "-//W3C//DTD SVG 1.1//EN" "http://www.w3.org/Graphics/SVG/1.1/DTD/svg11.dtd">
<!-- Creator: CorelDRAW 2020 (64-Bit) -->
<svg xmlns="http://www.w3.org/2000/svg" xml:space="preserve" width="650px" height="1654px" version="1.1" style="shape-rendering:geometricPrecision; text-rendering:geometricPrecision; image-rendering:optimizeQuality; fill-rule:evenodd; clip-rule:evenodd"
viewBox="0 0 650 1654.55"
 xmlns:xlink="http://www.w3.org/1999/xlink"
 xmlns:xodm="http://www.corel.com/coreldraw/odm/2003">
 <defs>
  <style type="text/css">
   <![CDATA[
    .fil1 {fill:#1A1A1A}
    .fil3 {fill:#CBCBCB}
    .fil0 {fill:#D41C1F}
    .fil2 {fill:white}
   ]]>
  </style>
 </defs>
 <g id="Katman_x0020_1">
  <metadata id="CorelCorpID_0Corel-Layer"/>
  <g id="_2249841569952">
   <path class="fil0" d="M253.39 406.01c-0.13,223.42 -4.38,494.9 0.37,712.36 -43.62,16.47 -84.19,54.4 -106.6,88.08 -27.13,40.79 -43.26,92.52 -33.51,153.28 37.87,235.94 375.79,243.69 420.51,5.39 11.67,-62.22 -5.69,-116.73 -32.15,-158.5 -31.14,-49.14 -59.09,-55.4 -106.43,-90.24l-0.61 -714.58c-0.01,-47.87 -25.16,-81.28 -72.13,-80.39 -48.28,0.9 -69.43,34.91 -69.45,84.6z"/>
   <path class="fil1" d="M197.44 1085.28l-0.03 -864.65c-0.06,-46.49 3.55,-87.48 27.51,-115.97 65.36,-77.74 226.05,-73.58 225.79,107.54l0 581.41c0,90.19 -6.44,208.09 1.35,294.89 21.08,3.99 52.66,35.63 62.81,46.36 196.81,208.15 -7.2,541.38 -283.25,446.22 -167.31,-57.68 -244.94,-291.98 -100.21,-445.83 19.19,-20.4 43.9,-33.66 66.03,-49.97zm313.31 -29.33c-4.38,-5.42 -2.66,-0.07 -4.92,-9.64l1.02 -83.63 124.01 -0.87c26.67,-17.02 23.88,-39.21 -0.22,-52.58l-125.09 -2.56 1.02 -105.18 71.43 -1.11c22.03,-7.33 26.26,-39.36 4.86,-50.39 -15.53,-8 -55.52,-3.66 -76.15,-4.97l0.6 -102.02c29.43,-2.69 64.98,-1 95.03,-0.81 40.57,0.26 51.8,-7.67 42.9,-48.26 -33.29,-17.44 -93.81,-6.37 -138.54,-9.26l0.27 -100.25c41.68,-10.61 68.75,13.97 88.84,-23.64 0.55,-52.16 -43.13,-31.9 -89.25,-37.39l0.08 -101.51c42.78,-4.48 101.91,9.44 137.2,-8.35 5.02,-33.8 10.98,-50.22 -37.25,-50.38 -33.11,-0.11 -67.51,1.79 -99.86,-0.79 -1.38,-96.93 7.09,-128.85 -42.43,-197.22 -64.74,-89.4 -244.28,-96.7 -306.81,43.25 -24.74,55.38 -16.02,154.58 -16.02,221.79 0,58.62 4.05,690.8 -0.17,715.47 -2.32,13.59 -15.11,19.52 -27.35,29.56 -13.87,11.37 -18.72,15.14 -30.09,28.86 -117.07,141.27 -104.78,327.14 -6.79,435.17 201.97,222.65 523,96.96 566.85,-151.96 12.88,-73.12 0.57,-145.2 -27.03,-204.09 -27.3,-58.26 -64.35,-94.94 -106.14,-127.24z"/>
   <path class="fil2" d="M253.39 406.01c0.02,-49.69 21.17,-83.7 69.45,-84.6 46.97,-0.89 72.12,32.52 72.13,80.39l0.61 714.58c47.34,34.84 75.29,41.1 106.43,90.24 26.46,41.77 43.82,96.28 32.15,158.5 -44.72,238.3 -382.64,230.55 -420.51,-5.39 -9.75,-60.76 6.38,-112.49 33.51,-153.28 22.41,-33.68 62.98,-71.61 106.6,-88.08 -4.75,-217.46 -0.5,-488.94 -0.37,-712.36zm-55.95 679.27c-22.13,16.31 -46.84,29.57 -66.03,49.97 -144.73,153.85 -67.1,388.15 100.21,445.83 276.05,95.16 480.06,-238.07 283.25,-446.22 -10.15,-10.73 -41.73,-42.37 -62.81,-46.36 -7.79,-86.8 -1.35,-204.7 -1.35,-294.89l0 -581.41c0.26,-181.12 -160.43,-185.28 -225.79,-107.54 -23.96,28.49 -27.57,69.48 -27.51,115.97l0.03 864.65z"/>
   <path class="fil3" d="M630.64 909.23c-4.01,-6.45 0.73,-4.02 -10.99,-6.35l-109.13 -0.3 -0.05 -96.49c12.52,0 25.03,-0.03 37.56,0.1 39.39,0.42 23.42,-1.01 29.97,-5.81l-71.43 1.11 -1.02 105.18 125.09 2.56z"/>
   <path class="fil3" d="M510.75 1055.95l0.19 -87.91 91.23 0.13c16.9,-0.08 17.44,0.24 28.69,-6.36l-124.01 0.87 -1.02 83.63c2.26,9.57 0.54,4.22 4.92,9.64z"/>
  </g>
 </g>
</svg>
